<?xml version="1.0" encoding="utf-8"?>
<!-- Generator: Adobe Illustrator 24.0.2, SVG Export Plug-In . SVG Version: 6.00 Build 0)  -->
<svg version="1.1" id="Layer_1" xmlns="http://www.w3.org/2000/svg" xmlns:xlink="http://www.w3.org/1999/xlink" x="0px" y="0px"
	 viewBox="0 0 4275.9 774.1" style="enable-background:new 0 0 4275.9 774.1;" xml:space="preserve">
<style type="text/css">
	.st0{fill:#ED1E24;}
	.st1{stroke:#000000;stroke-miterlimit:10;}
	.st2{stroke:#E9D700;stroke-width:0.58;stroke-miterlimit:10;}
	.st3{fill:#C9BB00;}
	.st4{fill:#E9D700;}
	.st5{fill:#FFF100;}
	.st6{fill:none;stroke:#FFFFFF;stroke-width:10;stroke-miterlimit:10;}
	.st7{fill:#FFFFFF;}
</style>
<title>pr-unlimited-logoV2</title>
<path d="M623.7,184.3h3557.6c44.9,0,81.5,37.2,81.5,83.1v249.3c0,45.8-36.5,83.1-81.5,83.1H623.7c-44.9,0-81.5-37.2-81.5-83.1V267.4
	C542.2,221.5,578.8,184.3,623.7,184.3z"/>
<g>
	<g>
		<ellipse class="st0" cx="349" cy="392" rx="280.5" ry="286.6"/>
		<path class="st1" d="M659.4,331.3c-7.9-40.9-24-79.7-47.1-114.5c-1.1-10.7-0.2-21.6,2.6-31.9l-57-57c-10.2,2.8-20.8,3.7-31.3,2.7
			c-35.1-23.9-74.7-40.2-116.5-48.4c-8-6.6-14.7-14.7-19.9-23.8h-80.7c-5.1,9-11.9,17.1-19.9,23.8c-41.7,8-81.4,24.5-116.6,48.4
			c-10.5,1-21.1,0.1-31.3-2.7l-57,57c2.8,10.4,3.7,21.2,2.6,31.9c-23.2,34.6-39.2,73.5-47.1,114.5c-6.9,8.6-15.3,15.8-25,21.4v80.7
			c9.8,5.6,18.5,13.1,25.5,22.1c8.1,39.6,23.9,77.3,46.2,111c1.2,9.9,1.2,22.1-2.3,34.6l57,57c12.7-3.6,25.3-3.5,35.2-2.2
			c33.1,21.8,70,37,108.8,45c8,6.2,17.1,15,23.7,26.7h80.7c6.5-11.7,15.5-20.6,23.6-26.7c38.8-8,75.7-23.3,108.8-45
			c10-1.3,22.5-1.4,35.3,2.2l57-57c-3.5-12.5-3.5-24.7-2.3-34.6c22.5-33.7,38.1-71.4,46.2-111c7-8.9,15.6-16.5,25.5-22.1v-80.7
			C674.8,347.2,666.3,339.9,659.4,331.3z M348.6,670.8c-153.4,0-277.8-124.4-277.8-277.8s124.4-277.8,277.8-277.8
			s277.8,124.4,277.8,277.8S502,670.8,348.6,670.8z"/>
		<circle class="st2" cx="350.5" cy="393.4" r="225.3"/>
		<circle class="st0" cx="350.7" cy="395.4" r="132.3"/>
		<path class="st3" d="M333.2,447.9L333.2,447.9l40.5,3c0,0-19.3,55-5.6,148.7c0,0-93.3-133.8-96.7-188.9l56.2,13.9L333.2,447.9z"/>
		<path class="st4" d="M341.4,458.2l13.6,20.9l33.3-0.4c0,0-23.1-138.9,79.2-236.7l-53.2-28.2C414.3,213.5,305.3,355.3,341.4,458.2z
			"/>
		<path class="st5" d="M293,426.9c0,0-35-70.9-37.9-155.1l159.3-58.1c0,0-89.6,131.9-59.3,265.4c0,0-14.5-6.7-21.9-16.3
			c0,0,0.4,69.4,34.9,136.9c0,0-96-114.5-96.7-188.9L293,426.9z"/>
	</g>
	<circle class="st6" cx="347.6" cy="391.9" r="295.4"/>
</g>
<g>
	<path class="st7" d="M788.8,323.7h71c43.4,0,65,25.1,65,50.2c0,25.3-21.8,50.4-64.7,50.4h-26.3v41.5h-44.9V323.7z M859.8,392.3
		c27.1,0.2,27.1-35.3,0-35.1h-26.1v35.1H859.8z"/>
	<path class="st7" d="M939.5,370.5c0-32.7,36.6-48.8,73.5-48.8c36.9,0,73.7,16.3,73.7,48.8V419c0,32.5-36.6,48.8-73.5,48.8
		s-73.7-16.3-73.7-48.8V370.5z M984.4,419c0,10.4,14.5,15.4,28.8,15.4s28.6-5.2,28.6-15.4v-48.5c0-11-14.8-16-29.3-16
		c-14,0-28.1,5.6-28.1,16V419z"/>
	<path class="st7" d="M1275.8,323.7h46.4l-51.2,142h-41.6l-15.8-39.3l-6.3-32.5h-0.8l-6.8,32.3l-14,39.5h-41.6l-51.4-142h46.6
		l21.1,68l4.5,30.1h1.3l4.3-29.9l19.8-49.8h34.1l18.3,50l5.8,29.7h0.8l5-29.7L1275.8,323.7z"/>
	<path class="st7" d="M1381.6,379.5h72v31.1h-72v21.3h78.2v33.9h-123.6v-142h123.6v33.7h-78.2V379.5z"/>
	<path class="st7" d="M1537.1,420.6h-8v45.1h-45.4v-142h71c36.6,0,65,13.4,66,46.7c0,26.3-13.3,41.1-34.9,46.5l48.4,48.8h-55.9
		L1537.1,420.6z M1555.4,389.7c28.3,0,28.3-32.5,0-32.5h-26.3v32.5H1555.4z"/>
	<path class="st7" d="M1744.8,420.6h-8v45.1h-45.4v-142h71c36.6,0,65,13.4,66,46.7c0,26.3-13.3,41.1-34.9,46.5l48.4,48.8h-55.9
		L1744.8,420.6z M1763.1,389.7c28.3,0,28.3-32.5,0-32.5h-26.3v32.5H1763.1z"/>
	<path class="st7" d="M2004.1,465.8h-48.1l-11.5-28.5H1897l-11,28.5h-48.1l61.9-142h40.9L2004.1,465.8z M1933.6,405.4l-12.3-41.5
		h-1.3l-13,41.5H1933.6z"/>
	<path class="st7" d="M2015.8,323.7h42.6l42.9,60.6l15,28.5l1.3-0.2c-0.3,0-4.8-24.5-5-24.5v-64.4h44.6v142h-45.4l-40.1-56
		l-15.5-28.5l-1.3,0.2l5.8,27.5v56.8h-44.9V323.7z"/>
	<path class="st7" d="M2275.4,365.9c-9.8-19.1-49.4-14.6-49.4,4v48.8c0,22.3,51.9,22.1,51.9,0v-5.2h-28.3v-30.1h71.5v35.3
		c0,32.7-34.1,49.2-69.7,49.2c-35.1,0-70.2-16.5-70.2-49.2v-48.8c0-32.1,35.1-48.1,70.2-48.1c23.1,0,49.4,7.6,61.7,30.3
		L2275.4,365.9z"/>
	<path class="st7" d="M2387.2,379.5h72v31.1h-72v21.3h78.2v33.9h-123.6v-142h123.6v33.7h-78.2V379.5z"/>
	<path class="st7" d="M2542.7,420.6h-8v45.1h-45.4v-142h71c36.6,0,65,13.4,66,46.7c0,26.3-13.3,41.1-34.9,46.5l48.4,48.8h-55.9
		L2542.7,420.6z M2561,389.7c28.3,0,28.3-32.5,0-32.5h-26.3v32.5H2561z"/>
	<path class="st7" d="M2671.1,420.8c17.8,17.3,56.9,18.1,58.2,2.8c0.5-8-15.8-12.6-30.3-14.2c-28.6-3.6-54.7-18.1-54.7-45.1
		c0-27.9,31.6-42.5,64.2-42.5c21.6,0,42.4,4.8,60.7,22.7l-29.3,18.1c-18.6-15.8-50.4-15.2-51.2,1.2c0.5,6.8,9.8,10.8,23.6,13.2
		c31.6,4.6,63.2,13.4,61.2,48.3c-1.5,27.5-37.6,42.5-70.2,42.5c-21.3,0-43.9-8.6-60.4-25.7L2671.1,420.8z"/>
	<path class="st7" d="M2882.8,418.2c0,22.9,50.7,22.9,50.9,0v-94.5h45.4v94.5c-0.3,66.6-141.9,66.6-141.7,0v-94.5h45.4V418.2z"/>
	<path class="st7" d="M3005.7,323.7h42.6l42.9,60.6l15,28.5l1.3-0.2c-0.3,0-4.8-24.5-5-24.5v-64.4h44.6v142h-45.4l-40.1-56
		l-15.5-28.5l-1.3,0.2l5.8,27.5v56.8h-44.9V323.7z"/>
	<path class="st7" d="M3175.2,323.7h45.1v106.5h72.2v35.5h-117.4V323.7z"/>
	<path class="st7" d="M3355.2,465.8h-44.9v-142h44.9V465.8z"/>
	<path class="st7" d="M3383.3,323.7h44.9l37.4,69.4l37.6-69.4h44.9v142H3503l0.3-40.9l2.8-28.7l-1.5-0.2l-23.3,48.8h-30.8
		l-23.8-48.8l-1.3,0.2l3,28.7v40.9h-44.9V323.7z"/>
	<path class="st7" d="M3621.1,465.8h-44.9v-142h44.9V465.8z"/>
	<path class="st7" d="M3731.2,357.6v108.1h-45.4V357.6h-47.1v-34.1h139.7v34.1H3731.2z"/>
	<path class="st7" d="M3841.2,379.5h72v31.1h-72v21.3h78.2v33.9h-123.6v-142h123.6v33.7h-78.2V379.5z"/>
	<path class="st7" d="M4009.8,323.7c35.6,0,69,14.4,69,47.5V419c0,32.7-33.4,46.9-69,46.7h-66.5v-142H4009.8z M4011.3,432.1
		c15.3,0,22.3-6.2,22.3-15.4v-44.3c0-9.2-7.3-15-22.3-15h-22.8v74.8H4011.3z"/>
</g>
</svg>
